<svg xmlns="http://www.w3.org/2000/svg" version="1.1" xmlns:xlink="http://www.w3.org/1999/xlink" width="1500" height="1500" viewBox="0 0 1500 1500"><rect width="1500" height="1500" x="0" y="0" id="background" stroke="transparent" fill="#102e44"></rect><svg xml:space="preserve" width="1000" height="1000" data-version="2" data-id="lg_N5L4A72KMKzwLyfSWh" viewBox="0 0 566 441" x="250" y="250"><rect width="100%" height="100%" fill="transparent"></rect><path fill="#fff" d="M5.635 368.593v-1.73h4.51q1.35 0 1.35-1.34v-54.53q0-1.15-1.35-1.15h-4.51v-1.73h30.43q7.59 0 10.66-.86-.87 3.93-.87 10.94v4.51h-2.2l-1.44-9.79q-.2-2.11-2.69-2.11h-20.16v26.21h19.29q1.16 0 1.35-1.35l.48-5.95h1.73v17.28h-1.73l-.48-5.95q-.19-1.34-1.35-1.34h-19.29v26.2h21.5q2.5 0 2.69-2.11l1.44-11.23h2.21v4.51q0 8.45.86 12.39-3.07-.87-10.65-.87Z"></path><rect width="42.43" height="62.21" x="-21.21" y="-31.11" fill="none" rx="0" ry="0" transform="translate(27.35 338.86)"></rect><path fill="#fff" d="M123.335 308.113h13.05v1.73h-3.55q-1.34 0-1.82 1.34l-17.76 57.41h-3.27l-15.65-47.81-15.55 47.81h-3.26l-17.76-57.41q-.48-1.34-1.83-1.34h-3.55v-1.73h18.24v1.73h-4.8l13.73 46.37 13.15-40.51-1.44-4.52q-.48-1.34-1.82-1.34h-3.55v-1.73h18.24v1.73h-4.8l14.49 46.08 14.31-46.08h-4.8Z"></path><rect width="84" height="60.48" x="-42" y="-30.24" fill="none" rx="0" ry="0" transform="translate(94.89 338.85)"></rect><path fill="#fff" d="M140.225 368.593v-1.73h4.51q1.35 0 1.35-1.34v-54.53q0-1.15-1.35-1.15h-4.51v-1.73h30.43q7.59 0 10.66-.86-.86 3.93-.86 10.94v4.51h-2.21l-1.44-9.79q-.19-2.11-2.69-2.11h-20.16v26.21h19.3q1.15 0 1.34-1.35l.48-5.95h1.73v17.28h-1.73l-.48-5.95q-.19-1.34-1.34-1.34h-19.3v26.2h21.5q2.5 0 2.69-2.11l1.44-11.23h2.21v4.51q0 8.45.86 12.39-3.07-.87-10.65-.87Z"></path><rect width="42.43" height="62.21" x="-21.21" y="-31.11" fill="none" rx="0" ry="0" transform="translate(161.94 338.86)"></rect><path fill="#fff" d="M195.715 365.523v-54.53q0-1.15-1.34-1.15h-4.52v-1.73h19.59v1.73h-4.51q-1.35 0-1.35 1.15v54.53q0 1.34 1.35 1.34h4.51v1.73h-19.59v-1.73h4.52q1.34 0 1.34-1.34m30.34-13.73 2.2 8.83q1.44 5.96 4.61 5.96 1.63 0 2.55-1.2.91-1.2.91-2.88t-.29-3.12l1.82-.29q.39 1.44.39 3.17 0 3.45-2.07 5.47-2.06 2.01-5.32 2.01-8.07 0-10.56-10.27l-2.21-8.83q-1.63-6.24-4.51-8.69-2.88-2.45-8.16-2.45v-2.11l22.65-27.55h-4.8v-1.73h13.06v1.73h-2.59q-1.54 0-2.69 1.34l-21.51 26.02q7.4.1 11.14 4.03 3.74 3.94 5.38 10.56"></path><rect width="48.39" height="61.63" x="-24.2" y="-30.82" fill="none" rx="0" ry="0" transform="translate(214.55 339.43)"></rect><path fill="#fff" d="M241.605 368.593v-1.73h4.51q1.34 0 1.34-1.34v-54.53q0-1.15-1.34-1.15h-4.51v-1.73h30.43q7.58 0 10.66-.86-.87 3.93-.87 10.94v4.51h-2.21l-1.44-9.79q-.19-2.11-2.68-2.11h-20.16v26.21h19.29q1.15 0 1.35-1.35l.48-5.95h1.72v17.28h-1.72l-.48-5.95q-.2-1.34-1.35-1.34h-19.29v26.2h21.5q2.5 0 2.69-2.11l1.44-11.23h2.21v4.51q0 8.45.86 12.39-3.07-.87-10.66-.87Z"></path><rect width="42.43" height="62.21" x="-21.21" y="-31.11" fill="none" rx="0" ry="0" transform="translate(263.32 338.86)"></rect><path fill="#fff" d="M315.235 368.593v-1.73h4.51q1.35 0 1.35-1.34v-54.53q0-1.15-1.35-1.15h-4.51v-1.73h19.58v1.73h-4.51q-1.34 0-1.34 1.15v54.91h19.1q2.5 0 2.69-2.11l1.44-11.23h2.21v4.51q0 8.45.86 12.39-3.07-.87-10.65-.87Z"></path><rect width="40.03" height="61.35" x="-20.02" y="-30.68" fill="none" rx="0" ry="0" transform="translate(335.75 339.29)"></rect><path fill="#fff" d="M358.625 368.593v-1.73h4.51q1.35 0 1.35-1.34v-54.53q0-1.15-1.35-1.15h-4.51v-1.73h30.43q7.59 0 10.66-.86-.86 3.93-.86 10.94v4.51h-2.21l-1.44-9.79q-.19-2.11-2.69-2.11h-20.16v26.21h19.3q1.15 0 1.34-1.35l.48-5.95h1.73v17.28h-1.73l-.48-5.95q-.19-1.34-1.34-1.34h-19.3v26.2h21.5q2.5 0 2.69-2.11l1.44-11.23h2.21v4.51q0 8.45.86 12.39-3.07-.87-10.65-.87Z"></path><rect width="42.43" height="62.21" x="-21.21" y="-31.11" fill="none" rx="0" ry="0" transform="translate(380.34 338.86)"></rect><path fill="#fff" d="M435.815 309.743q-8.74 0-14.07 7.68t-5.33 21.03q0 13.34 5.38 20.93 5.38 7.58 13.49 7.58t11.33-4.18q3.21-4.17 3.21-12.24v-3.84q0-1.15-1.34-1.15h-6.43v-1.73h19.58v1.73h-2.59q-1.35 0-1.35 1.15v3.46q0 8.54-6.14 14.06-6.14 5.52-15.74 5.52-12.1 0-19.83-8.35-7.73-8.35-7.73-22.99 0-14.64 7.64-23.04 7.63-8.4 19.92-8.4 6.24 0 12.48 3.17 2.01 1.05 2.88 1.05 1.44 0 1.53-2.01l.1-1.63h1.82v16.6h-1.73q-.86-7.39-5.52-10.89-4.65-3.51-11.56-3.51"></path><rect width="53.38" height="62.78" x="-26.69" y="-31.39" fill="none" rx="0" ry="0" transform="translate(435.44 338.85)"></rect><path fill="#fff" d="M516.935 368.593h-19.68v-1.73h6.24l-6.72-18.52h-21.12l-6.72 18.52h6.24v1.73h-14.5v-1.73h3.55q1.35 0 1.83-1.34l21.12-57.41h3.26l21.12 57.41q.48 1.34 1.82 1.34h3.56Zm-30.63-49.15-9.6 26.21h19.11Z"></path><rect width="56.26" height="60.48" x="-28.13" y="-30.24" fill="none" rx="0" ry="0" transform="translate(489.3 338.85)"></rect><path fill="#fff" d="M519.335 368.593v-1.73h4.51q1.34 0 1.34-1.34v-54.53q0-1.15-1.34-1.15h-4.51v-1.73h19.58v1.73h-4.51q-1.35 0-1.35 1.15v54.91h19.11q2.49 0 2.69-2.11l1.44-11.23h2.2v4.51q0 8.45.87 12.39-3.07-.87-10.66-.87Z"></path><rect width="40.03" height="61.35" x="-20.02" y="-30.68" fill="none" rx="0" ry="0" transform="translate(539.85 339.29)"></rect><path fill="#fff" d="M136.695 432.853q-1.23 0-2.24-.06-1.01-.06-1.61-.21-.61-.15-.61-.42l.85-1.31q.49.22 1.37.29.88.08 2.32.08h1.63q.8 0 1.06-.38.25-.38.25-.83v-5.79l-.13-1.36h2.38v6.95q0 .85-.22 1.55-.21.69-.86 1.09-.66.4-2 .4Z"></path><rect width="9.73" height="9.99" x="-4.87" y="-5" fill="none" rx="0" ry="0" transform="translate(137.6 428.36)"></rect><path fill="#fff" d="M146.385 432.853q-.84 0-1.3-.22-.47-.22-.67-.56-.19-.34-.24-.71-.04-.38-.04-.68v-5.44h2.08v5.47q-.02.38.24.53.27.15.57.15h3.37q.37 0 .44-.07.07-.06.07-.44v-5.64h2.07v7.61h-1.39l-.65-.34q-.68.14-1.6.24-.93.1-2.09.1Z"></path><rect width="8.84" height="7.61" x="-4.42" y="-3.81" fill="none" rx="0" ry="0" transform="translate(149.06 429.55)"></rect><path fill="#fff" d="M156.735 432.853q-1.14 0-1.62-.12-.47-.11-.47-.23l.51-1.28q.49.05 1.81.11t3.25.06h.85q.43 0 .54-.23.11-.23.11-.62t-.13-.63q-.13-.24-.52-.24h-4.18q-1.19 0-1.72-.45-.52-.45-.52-1.35v-.68q0-.24.05-.56.05-.32.25-.64.21-.33.67-.54.46-.21 1.27-.21h4.69q1.02 0 1.45.12.42.12.42.23l-.17 1.28q-.49-.05-1.82-.11-1.32-.06-3.24-.06h-.85q-.43 0-.54.23-.11.23-.11.53 0 .33.11.54.11.21.54.21h4.18q1.16 0 1.7.48.54.47.54 1.21v1q0 .3-.04.64t-.25.64q-.2.3-.66.49-.46.18-1.29.18Z"></path><rect width="9.14" height="7.61" x="-4.57" y="-3.81" fill="none" rx="0" ry="0" transform="translate(159.72 429.55)"></rect><path fill="#fff" d="M168.415 432.853q-1.29 0-1.77-.54t-.48-1.63v-3.98h-1.39v-1.46h.71q.33 0 .47-.1.15-.11.21-.41l.34-1.82h1.74v2.33h3.53v1.46h-3.53v3.99q0 .43.2.57.21.13.61.13h2.4l.17 1.29q-.36.05-1.09.11-.73.06-1.6.06Z"></path><rect width="7" height="9.94" x="-3.5" y="-4.97" fill="none" rx="0" ry="0" transform="translate(168.78 428.38)"></rect><path fill="#fff" d="M174.145 424.173q-.63 0-.92-.26-.29-.25-.29-.85 0-.61.28-.86.28-.24.93-.24.64 0 .93.24.29.25.29.86 0 .58-.29.84-.29.27-.93.27m-1.04 8.68v-7.61h2.07v7.61Z"></path><rect width="2.43" height="10.89" x="-1.22" y="-5.45" fill="none" rx="0" ry="0" transform="translate(174.65 427.9)"></rect><path fill="#fff" d="M179.275 432.853q-.85 0-1.31-.22-.46-.22-.65-.56-.2-.34-.24-.71-.04-.38-.04-.68v-3.27q0-.25.04-.62.04-.36.24-.72.19-.36.66-.59.47-.24 1.3-.24h2.36q2.13 0 3.02.11.89.11.89.23l-.34 1.29q-.47-.03-1.2-.08-.73-.04-1.58-.07-.84-.02-1.64-.02h-.86q-.82 0-.82.68v3.33q-.02.68.82.68h.86q.92 0 1.8-.02.87-.03 1.6-.07.73-.04 1.18-.08l.68 1.11q0 .52-3.35.52Z"></path><rect width="9.01" height="7.61" x="-4.5" y="-3.81" fill="none" rx="0" ry="0" transform="translate(182.04 429.55)"></rect><path fill="#fff" d="M189.105 432.853q-.85 0-1.31-.22-.46-.22-.66-.56-.19-.34-.23-.71-.05-.38-.05-.68v-3.27q0-.25.05-.62.04-.36.23-.72.2-.36.67-.59.46-.24 1.3-.24h3.65q1.12 0 1.76.21.64.21.9.69.27.47.27 1.27v2.52h-2.98q-1.53 0-2.49-.07-.96-.07-1.28-.08v.93q-.02.68.81.68h.87q.92 0 1.79-.02.88-.03 1.61-.07.73-.04 1.17-.08l.68 1.11q0 .52-3.35.52Zm-.17-4.38h4.67v-1.09q0-.34-.07-.48-.08-.13-.46-.17-.37-.03-1.27-.03h-2.06q-.81 0-.81.68Z"></path><rect width="9.01" height="7.61" x="-4.5" y="-3.81" fill="none" rx="0" ry="0" transform="translate(191.86 429.55)"></rect><path fill="#fff" d="M201.405 432.853v-8.63l-.17-1.36h7.89q1.38 0 2.12.34.74.34 1.03 1.01.29.67.29 1.67v3.93q0 1.02-.28 1.69-.28.67-1.02 1.01-.74.34-2.14.34Zm2.25-1.63h5.34q1.31 0 1.32-1.21v-4.33q0-.49-.29-.84t-1.03-.35h-5.34Z"></path><rect width="11.33" height="9.99" x="-5.67" y="-5" fill="none" rx="0" ry="0" transform="translate(207.4 428.36)"></rect><path fill="#fff" d="M216.475 432.853q-.85 0-1.31-.22-.46-.22-.66-.56-.19-.34-.23-.71-.05-.38-.05-.68v-3.27q0-.25.05-.62.04-.36.23-.72.2-.36.67-.59.46-.24 1.3-.24h3.65q1.12 0 1.76.21.64.21.9.69.27.47.27 1.27v2.52h-2.98q-1.53 0-2.49-.07-.96-.07-1.28-.08v.93q-.02.68.81.68h.87q.92 0 1.79-.02.88-.03 1.61-.07.73-.04 1.17-.08l.68 1.11q0 .52-3.35.52Zm-.17-4.38h4.67v-1.09q0-.34-.07-.48-.08-.13-.46-.17-.37-.03-1.27-.03h-2.06q-.81 0-.81.68Z"></path><rect width="9.01" height="7.61" x="-4.5" y="-3.81" fill="none" rx="0" ry="0" transform="translate(219.23 429.55)"></rect><path fill="#fff" d="M224.905 432.853v-9.41l-.17-1.36h2.24v10.77Z"></path><rect width="2.24" height="10.77" x="-1.12" y="-5.38" fill="none" rx="0" ry="0" transform="translate(226.35 427.97)"></rect><path fill="#fff" d="M230.025 424.173q-.63 0-.92-.26-.29-.25-.29-.85 0-.61.28-.86.28-.24.93-.24.64 0 .93.24.29.25.29.86 0 .58-.29.84-.29.27-.93.27m-1.04 8.68v-7.61h2.07v7.61Z"></path><rect width="2.43" height="10.89" x="-1.22" y="-5.45" fill="none" rx="0" ry="0" transform="translate(230.53 427.9)"></rect><path fill="#fff" d="m235.735 432.853-3.5-7.61h2.38l1.95 4.69.44 1.22h.17l.44-1.22 1.99-4.69h2.32l-.28 1.03-3.19 6.58Z"></path><rect width="9.69" height="7.61" x="-4.84" y="-3.81" fill="none" rx="0" ry="0" transform="translate(237.58 429.55)"></rect><path fill="#fff" d="M244.985 432.853q-.85 0-1.31-.22-.46-.22-.66-.56-.19-.34-.24-.71-.04-.38-.04-.68v-3.27q0-.25.04-.62.05-.36.24-.72.2-.36.67-.59.46-.24 1.3-.24h3.65q1.12 0 1.76.21.64.21.9.69.26.47.26 1.27v2.52h-2.97q-1.53 0-2.49-.07-.96-.07-1.28-.08v.93q-.02.68.81.68h.87q.92 0 1.79-.02.88-.03 1.61-.07.73-.04 1.17-.08l.68 1.11q0 .52-3.35.52Zm-.17-4.38h4.67v-1.09q0-.34-.08-.48-.07-.13-.45-.17-.37-.03-1.27-.03h-2.06q-.81 0-.81.68Z"></path><rect width="9.01" height="7.61" x="-4.5" y="-3.81" fill="none" rx="0" ry="0" transform="translate(247.74 429.55)"></rect><path fill="#fff" d="M253.245 432.853v-7.61h1.39l.65.34q.44-.24.95-.38.51-.13 1.29-.13 1.24 0 2.02.27.77.27 1.02.41l-.59 1.48q-.2-.11-.67-.27-.47-.16-1.1-.29-.63-.14-1.38-.14h-.18q-.82 0-1.06.32-.25.33-.27 1.07v4.93Z"></path><rect width="7.32" height="7.78" x="-3.66" y="-3.89" fill="none" rx="0" ry="0" transform="translate(257.4 429.46)"></rect><path fill="#fff" d="M263.625 432.853q-.85 0-1.3-.22-.46-.22-.66-.56-.19-.34-.24-.71-.04-.38-.04-.68v-3.27q0-.25.04-.62.05-.36.24-.72.2-.36.66-.59.47-.24 1.3-.24h3.66q1.12 0 1.76.21.64.21.9.69.26.47.26 1.27v2.52h-2.97q-1.53 0-2.49-.07-.96-.07-1.29-.08v.93q-.01.68.82.68h.87q.92 0 1.79-.02.88-.03 1.61-.07.73-.04 1.17-.08l.68 1.11q0 .52-3.35.52Zm-.17-4.38h4.68v-1.09q0-.34-.08-.48-.07-.13-.45-.17-.37-.03-1.27-.03h-2.06q-.82 0-.82.68Z"></path><rect width="9.01" height="7.61" x="-4.5" y="-3.81" fill="none" rx="0" ry="0" transform="translate(266.39 429.55)"></rect><path fill="#fff" d="M273.965 432.853q-.85 0-1.31-.22-.46-.22-.65-.56-.2-.34-.24-.71-.04-.38-.04-.68v-3.27q0-.25.04-.62.04-.36.24-.72.19-.36.66-.59.47-.24 1.3-.24h.87q1.56 0 2.52.06t1.47.12v-3.34h2.08v10.77h-1.4l-.66-.34q-.71.12-1.72.23-1 .11-2.31.11Zm.65-1.46h3.69q.35 0 .44-.08.08-.09.08-.43v-4.06q-.58-.04-1.46-.08t-1.89-.04h-.86q-.82 0-.82.68v3.33q0 .68.82.68"></path><rect width="9.18" height="10.77" x="-4.59" y="-5.38" fill="none" rx="0" ry="0" transform="translate(276.81 427.97)"></rect><path fill="#fff" d="M283.345 435.203q-.35.1-.41-.09-.06-.2.06-.4.1-.14.28-.45.18-.3.35-.68.17-.39.22-.78-.44-.07-.65-.32-.2-.26-.2-.78 0-.6.28-.84.28-.25.92-.25.7 0 1.05.3.35.29.35.97 0 .5-.21 1.04-.22.55-.56 1.03-.34.48-.73.82-.39.33-.75.43"></path><rect width="2.7" height="4.66" x="-1.35" y="-2.33" fill="none" rx="0" ry="0" transform="translate(284.75 433.44)"></rect><path fill="#fff" d="M291.815 432.853v-8.63l-.17-1.38h7.53q1.09 0 1.71.29.62.29.92.76.3.46.38.99.09.53.09 1v1.01q0 .39-.12.87-.12.49-.45.94-.32.45-.93.74-.61.3-1.6.3h-1.73q-1.07 0-2-.05-.93-.05-1.39-.08v3.24Zm2.24-4.74h4.63q.76 0 1.05-.37.29-.38.29-.9v-1.08q0-.54-.29-.91-.29-.38-1.03-.38h-4.65Z"></path><rect width="10.63" height="10.01" x="-5.32" y="-5" fill="none" rx="0" ry="0" transform="translate(297.46 428.35)"></rect><path fill="#fff" d="M306.185 432.853q-.85 0-1.31-.22-.46-.22-.66-.56-.19-.34-.24-.71-.04-.38-.04-.68v-3.27q0-.25.04-.62.05-.36.24-.72.2-.36.67-.59.46-.24 1.3-.24h3.65q1.12 0 1.76.21.64.21.9.69.26.47.26 1.27v2.52h-2.97q-1.53 0-2.49-.07-.96-.07-1.28-.08v.93q-.02.68.81.68h.87q.92 0 1.79-.02.88-.03 1.61-.07.73-.04 1.17-.08l.68 1.11q0 .52-3.35.52Zm-.17-4.38h4.67v-1.09q0-.34-.08-.48-.07-.13-.45-.17-.37-.03-1.27-.03h-2.06q-.81 0-.81.68Z"></path><rect width="9.01" height="7.61" x="-4.5" y="-3.81" fill="none" rx="0" ry="0" transform="translate(308.94 429.55)"></rect><path fill="#fff" d="M316.635 432.853q-1.29 0-1.87-.6-.58-.6-.58-1.66 0-1.1.61-1.7.6-.59 1.84-.59h.87q1.27 0 2.29.07 1.02.06 1.69.13v-1.12q0-.15-.04-.32-.03-.16-.2-.26t-.58-.1h-.85q-1.85 0-3.09.06-1.25.06-1.69.11l-.18-1.29q0-.24 1.29-.29 1.29-.05 4.32-.05h.85q.85 0 1.3.24.46.23.66.59.19.36.24.72.04.37.04.62v5.44h-1.39l-.67-.34q-.71.12-1.71.23-1.01.11-2.3.11Zm.44-1.46h3.9q.37 0 .44-.07.07-.06.07-.42v-1.31h-4.41q-.46 0-.63.22-.18.22-.18.7 0 .47.2.68.2.2.61.2"></path><rect width="9.37" height="7.61" x="-4.68" y="-3.81" fill="none" rx="0" ry="0" transform="translate(319.37 429.55)"></rect><path fill="#fff" d="M327.375 432.853q-.85 0-1.3-.22-.46-.22-.66-.56-.19-.34-.24-.71-.04-.38-.04-.68v-3.27q0-.25.04-.62.05-.36.24-.72.2-.36.66-.59.47-.24 1.3-.24h2.37q2.12 0 3.02.11.89.11.89.23l-.34 1.29q-.48-.03-1.21-.08-.73-.04-1.57-.07-.84-.02-1.64-.02h-.87q-.82 0-.82.68v3.33q-.01.68.82.68h.87q.92 0 1.79-.02.88-.03 1.61-.07.73-.04 1.17-.08l.68 1.11q0 .52-3.35.52Z"></path><rect width="9.01" height="7.61" x="-4.5" y="-3.81" fill="none" rx="0" ry="0" transform="translate(330.14 429.55)"></rect><path fill="#fff" d="M337.205 432.853q-.85 0-1.31-.22-.46-.22-.65-.56-.2-.34-.24-.71-.04-.38-.04-.68v-3.27q0-.25.04-.62.04-.36.24-.72.19-.36.66-.59.47-.24 1.3-.24h3.66q1.12 0 1.76.21.63.21.9.69.26.47.26 1.27v2.52h-2.98q-1.53 0-2.49-.07-.96-.07-1.28-.08v.93q-.02.68.82.68h.86q.92 0 1.8-.02.87-.03 1.6-.07.73-.04 1.18-.08l.68 1.11q0 .52-3.35.52Zm-.17-4.38h4.68v-1.09q0-.34-.08-.48-.08-.13-.45-.17-.38-.03-1.28-.03h-2.05q-.82 0-.82.68Z"></path><rect width="9.01" height="7.61" x="-4.5" y="-3.81" fill="none" rx="0" ry="0" transform="translate(339.97 429.55)"></rect><path fill="#fff" d="M360.205 433.023q-.68 0-1.33-.21-.66-.21-1.49-1.04l-1.22-1.23q-.75-.76-1.64-1.12-.9-.36-2.24-.36h-.53v3.79h-2.24v-8.63l-.17-1.38h7.53q1.09 0 1.71.29.62.29.92.76.29.46.38.99.08.53.08 1v.33q0 .37-.1.83-.1.46-.39.9-.29.44-.82.75-.54.3-1.41.36.22.11.56.36.34.25.71.54.37.29.67.52.31.24.48.34.61.36 1.09.5.47.13.78.15.3.02.35.02l-.34 1.37q-.15.05-.51.11-.35.06-.83.06m-5.9-5.5q.65 0 1.16-.03.51-.03.92-.06.74-.08 1.04-.42.3-.33.3-.85v-.4q0-.54-.29-.91-.29-.38-1.04-.38h-4.64v2.96q.75.05 1.38.07.63.02 1.17.02"></path><rect width="12.54" height="10.18" x="-6.27" y="-5.09" fill="none" rx="0" ry="0" transform="translate(356.12 428.43)"></rect><path fill="#fff" d="M364.945 432.853q-.85 0-1.3-.22-.46-.22-.66-.56-.19-.34-.24-.71-.04-.38-.04-.68v-3.27q0-.25.04-.62.05-.36.24-.72.2-.36.66-.59.47-.24 1.3-.24h3.66q1.12 0 1.76.21.64.21.9.69.26.47.26 1.27v2.52h-2.97q-1.53 0-2.49-.07-.96-.07-1.29-.08v.93q-.01.68.82.68h.87q.92 0 1.79-.02.88-.03 1.61-.07.73-.04 1.17-.08l.68 1.11q0 .52-3.35.52Zm-.17-4.38h4.68v-1.09q0-.34-.08-.48-.07-.13-.45-.17-.37-.03-1.27-.03h-2.06q-.82 0-.82.68Z"></path><rect width="9.01" height="7.61" x="-4.5" y="-3.81" fill="none" rx="0" ry="0" transform="translate(367.71 429.55)"></rect><path fill="#fff" d="M375.135 432.853q-1.14 0-1.62-.12-.47-.11-.47-.23l.51-1.28q.49.05 1.81.11 1.31.06 3.25.06h.85q.43 0 .54-.23.11-.23.11-.62t-.13-.63q-.13-.24-.52-.24h-4.18q-1.19 0-1.72-.45-.52-.45-.52-1.35v-.68q0-.24.05-.56.05-.32.25-.64.21-.33.67-.54.45-.21 1.27-.21h4.69q1.02 0 1.45.12.42.12.42.23l-.17 1.28q-.49-.05-1.82-.11-1.32-.06-3.24-.06h-.85q-.43 0-.54.23-.11.23-.11.53 0 .33.11.54.11.21.54.21h4.18q1.15 0 1.7.48.54.47.54 1.21v1q0 .3-.04.64t-.25.64q-.2.3-.66.49-.46.18-1.29.18Z"></path><rect width="9.14" height="7.61" x="-4.57" y="-3.81" fill="none" rx="0" ry="0" transform="translate(378.12 429.55)"></rect><path fill="#fff" d="M386.815 432.853q-1.3 0-1.77-.54-.48-.54-.48-1.63v-3.98h-1.39v-1.46h.71q.33 0 .47-.1.14-.11.21-.41l.34-1.82h1.74v2.33h3.53v1.46h-3.53v3.99q0 .43.2.57.2.13.61.13h2.4l.17 1.29q-.36.05-1.09.11-.73.06-1.6.06Z"></path><rect width="7" height="9.94" x="-3.5" y="-4.97" fill="none" rx="0" ry="0" transform="translate(387.18 428.38)"></rect><path fill="#fff" d="M393.405 432.853q-1.14 0-1.69-.46-.55-.45-.55-1.49v-3.49q0-.25.04-.62.04-.36.24-.72.19-.36.66-.59.47-.24 1.3-.24h4.69q.85 0 1.31.24.46.23.66.59.19.36.24.72.04.37.04.62v3.27q0 .3-.04.68-.05.37-.25.71-.2.34-.66.56-.46.22-1.3.22Zm.65-1.46h3.4q.83 0 .83-.68v-3.33q0-.68-.83-.68h-3.4q-.82 0-.82.68v3.33q0 .68.82.68"></path><rect width="9.18" height="7.61" x="-4.59" y="-3.81" fill="none" rx="0" ry="0" transform="translate(396.25 429.55)"></rect><path fill="#fff" d="M402.005 432.853v-7.61h1.4l.64.34q.45-.24.96-.38.51-.13 1.29-.13 1.24 0 2.01.27.78.27 1.03.41l-.59 1.48q-.21-.11-.67-.27-.47-.16-1.1-.29-.63-.14-1.38-.14h-.19q-.81 0-1.06.32-.24.33-.26 1.07v4.93Z"></path><rect width="7.33" height="7.78" x="-3.67" y="-3.89" fill="none" rx="0" ry="0" transform="translate(406.17 429.46)"></rect><path fill="#fff" d="M412.395 432.853q-.85 0-1.31-.22-.46-.22-.65-.56-.2-.34-.24-.71-.04-.38-.04-.68v-3.27q0-.25.04-.62.04-.36.24-.72.19-.36.66-.59.47-.24 1.3-.24h3.66q1.12 0 1.76.21.63.21.9.69.26.47.26 1.27v2.52h-2.97q-1.53 0-2.49-.07-.97-.07-1.29-.08v.93q-.02.68.82.68h.86q.92 0 1.8-.02.87-.03 1.6-.07.74-.04 1.18-.08l.68 1.11q0 .52-3.35.52Zm-.17-4.38h4.68v-1.09q0-.34-.08-.48-.08-.13-.45-.17-.37-.03-1.28-.03h-2.05q-.82 0-.82.68Z"></path><rect width="9.01" height="7.61" x="-4.5" y="-3.81" fill="none" rx="0" ry="0" transform="translate(415.16 429.55)"></rect><path fill="#fff" d="M422.735 432.853q-.85 0-1.31-.22-.46-.22-.66-.56-.19-.34-.23-.71-.05-.38-.05-.68v-3.27q0-.25.05-.62.04-.36.23-.72.2-.36.67-.59.46-.24 1.3-.24h.86q1.57 0 2.53.06.96.06 1.47.12v-3.34h2.07v10.77h-1.39l-.66-.34q-.72.12-1.72.23-1 .11-2.31.11Zm.64-1.46h3.69q.36 0 .44-.08.09-.09.09-.43v-4.06q-.58-.04-1.46-.08-.89-.04-1.89-.04h-.87q-.81 0-.81.68v3.33q0 .68.81.68"></path><rect width="9.18" height="10.77" x="-4.59" y="-5.38" fill="none" rx="0" ry="0" transform="translate(425.57 427.97)"></rect><path fill="#fff" d="M169.227 15.186v221.272a10.465 10.465 0 0 0 10.453 10.456h173.816a10.465 10.465 0 0 0 10.453-10.456V15.186A10.465 10.465 0 0 0 353.496 4.73H179.68a10.465 10.465 0 0 0-10.453 10.456m63.343 29.91h68.036a13.677 13.677 0 0 0 13.662-13.665v-3.954h24.654v194.674H194.254V27.477h24.654v3.954a13.677 13.677 0 0 0 13.662 13.662m75.643-13.662a7.617 7.617 0 0 1-7.607 7.607H232.57a7.617 7.617 0 0 1-7.607-7.607v-3.954h83.25zm-83.25-10.008V10.785h83.25v10.638zm-49.681-6.237a4.405 4.405 0 0 1 4.398-4.401h39.228v10.638h-27.682a3.027 3.027 0 0 0-3.027 3.027v200.728a3.027 3.027 0 0 0 3.027 3.027H341.95a3.027 3.027 0 0 0 3.027-3.027V24.45a3.027 3.027 0 0 0-3.027-3.027h-27.682V10.785h39.228a4.407 4.407 0 0 1 4.398 4.401v221.272a4.405 4.405 0 0 1-4.398 4.401H179.68a4.407 4.407 0 0 1-4.398-4.401z"></path><path fill="#fff" d="M209.702 91.956a3.028 3.028 0 0 0-2.307 5.6c.194.076 2.386.942 6.267.942 2.4 0 5.461-.346 9.082-1.399L210.7 137.468h-3.372a3.027 3.027 0 0 0-3.028 3.027v6.92a9.9 9.9 0 0 0 9.887 9.888h28.064a9.9 9.9 0 0 0 9.887-9.887v-6.92a3.027 3.027 0 0 0-3.028-3.028h-5.085l-13.033-43.702a57.556 57.556 0 0 0 3.512-1.947c12.642-7.59 24.188-8.376 29.174-8.294v79.042h-10.735a8.658 8.658 0 0 0-8.646 8.646v10.314a3.027 3.027 0 0 0 3.027 3.028h38.759a3.027 3.027 0 0 0 3.027-3.028v-10.314a8.658 8.658 0 0 0-8.646-8.646H269.73V83.515c4.965-.096 16.457.673 29.174 8.304.866.521 1.696.97 2.528 1.414l-13.196 44.235h-3.363a3.027 3.027 0 0 0-3.027 3.027v6.92a9.9 9.9 0 0 0 9.887 9.888h28.063a9.9 9.9 0 0 0 9.887-9.887v-6.92a3.027 3.027 0 0 0-3.027-3.028h-5.086L309.41 96.69c4.17 1.363 7.67 1.808 10.346 1.808 3.875 0 6.073-.866 6.267-.945a3.01 3.01 0 0 0 1.64-3.9c-.605-1.537-2.351-2.3-3.904-1.716-.085.03-8.065 2.895-21.733-5.306-13.88-8.325-26.435-9.276-32.29-9.17V72.89a3.027 3.027 0 1 0-6.054 0v4.57c-5.852-.105-18.41.84-32.29 9.17-13.662 8.202-21.648 5.34-21.687 5.326m36.382 55.46a3.837 3.837 0 0 1-3.832 3.832H214.19a3.839 3.839 0 0 1-3.832-3.832v-3.893h35.728zm-29.068-9.948 10.347-34.687 10.348 34.687zm66.044 33.745v7.287h-32.71v-7.287a2.594 2.594 0 0 1 2.591-2.591h27.524a2.592 2.592 0 0 1 2.592 2.591m40.565-23.797a3.84 3.84 0 0 1-3.835 3.832h-28.063a3.836 3.836 0 0 1-3.83-3.832v-3.893h35.728zm-29.068-9.948 10.348-34.687 10.347 34.687zM42.215 223.743v-36.75h16.1v4.9h-10.55v10.15h8.5v5h-8.5v11.75h12.2v4.95Z"></path><rect width="17.75" height="36.75" x="-8.88" y="-18.38" fill="none" rx="0" ry="0" transform="translate(51.59 205.87)"></rect><path fill="#fff" d="M73.915 224.243q-2.1 0-4.15-.53-2.05-.52-3.65-1.3-1.6-.77-2.4-1.57l2.65-4.75q.55.45 1.73 1.17 1.17.73 2.72 1.28 1.55.55 3.1.55 2.55 0 4.28-1.2 1.72-1.2 1.72-3.5 0-1.9-1-3.15t-2.62-2.2q-1.63-.95-3.5-1.83-1.88-.87-3.58-1.97-1.95-1.3-3.4-3.45-1.45-2.15-1.45-5.55 0-3.35 1.53-5.5 1.52-2.15 4.05-3.23 2.52-1.07 5.52-1.07 2.4 0 4.1.5 1.7.5 2.85 1.2 1.15.7 1.8 1.25l-2.65 4.55q-.85-.9-2.55-1.68-1.7-.77-3.8-.77-2.45 0-3.9 1.12-1.45 1.13-1.45 3.33 0 1.95 1.3 3.32 1.3 1.38 3.33 2.5 2.02 1.13 4.17 2.28t3.8 2.7q1.35 1.2 2.3 3 .95 1.8.95 4.05 0 3.4-1.57 5.75-1.58 2.35-4.23 3.52-2.65 1.18-6 1.18"></path><rect width="22" height="37.8" x="-11" y="-18.9" fill="none" rx="0" ry="0" transform="translate(75.22 205.84)"></rect><path fill="#fff" d="M97.215 223.743v-31.85h-9.4v-4.9h24.45v4.9h-9.5v31.85Z"></path><rect width="24.45" height="36.75" x="-12.22" y="-18.38" fill="none" rx="0" ry="0" transform="translate(100.54 205.87)"></rect><path fill="#fff" d="M114.465 224.243q-1.5 0-2.55-1.03-1.05-1.02-1.05-2.52 0-1.55 1.03-2.58 1.02-1.02 2.57-1.02 1.6 0 2.6 1.02 1 1.03 1 2.58 0 1.5-1.02 2.52-1.03 1.03-2.58 1.03"></path><rect width="7.2" height="7.15" x="-3.6" y="-3.58" fill="none" rx="0" ry="0" transform="translate(114.97 221.17)"></rect><path fill="#fff" d="m423.025 221.193 10.37-12.98q.84-1.09 1.91-2.67 1.07-1.57 1.89-3.28.82-1.7.82-3.17 0-2.31-1.24-3.57-1.24-1.26-3.72-1.26-1.72 0-2.89.76-1.18.76-1.92 1.76-.73 1.01-1.15 1.81l-3.91-2.1q.8-1.51 2.08-3.05 1.28-1.53 3.22-2.58 1.93-1.05 4.7-1.05 3.19 0 5.33 1.14 2.15 1.13 3.22 3.1 1.07 1.98 1.07 4.5 0 2.69-1.33 5.5-1.32 2.81-3.71 5.75l-5.71 7.23h11.97v4.16Z"></path><rect width="21" height="31.38" x="-10.5" y="-15.69" fill="none" rx="0" ry="0" transform="translate(434.02 206)"></rect><path fill="#fff" d="M459.725 221.823q-3.06 0-5.2-1.26-2.15-1.26-3.49-3.47-1.34-2.2-1.95-5.12-.61-2.92-.61-6.2 0-3.4.59-6.3.58-2.9 1.89-5.06 1.3-2.16 3.46-3.38 2.16-1.22 5.31-1.22 4.2 0 6.64 2.06 2.44 2.06 3.51 5.65 1.07 3.59 1.07 8.25 0 4.5-1.12 8.15-1.11 3.65-3.57 5.77-2.45 2.13-6.53 2.13m0-4.29q1.89 0 3.09-1.01 1.2-1 1.85-2.73.65-1.72.9-3.8t.25-4.22q0-2.35-.25-4.45t-.9-3.74q-.65-1.64-1.85-2.58-1.2-.95-3.09-.95t-3.1.95q-1.22.94-1.87 2.58-.65 1.64-.91 3.74-.25 2.1-.25 4.45 0 2.14.25 4.22.26 2.08.91 3.78.65 1.7 1.87 2.73 1.21 1.03 3.1 1.03"></path><rect width="22.47" height="32.01" x="-11.23" y="-16" fill="none" rx="0" ry="0" transform="translate(460.21 206.32)"></rect><path fill="#fff" d="m474.685 221.193 10.37-12.98q.84-1.09 1.91-2.67 1.07-1.57 1.89-3.28.82-1.7.82-3.17 0-2.31-1.24-3.57-1.24-1.26-3.72-1.26-1.72 0-2.89.76-1.18.76-1.92 1.76-.73 1.01-1.15 1.81l-3.91-2.1q.8-1.51 2.08-3.05 1.28-1.53 3.22-2.58 1.93-1.05 4.7-1.05 3.19 0 5.33 1.14 2.15 1.13 3.22 3.1 1.07 1.98 1.07 4.5 0 2.69-1.33 5.5-1.32 2.81-3.71 5.75l-5.71 7.23h11.97v4.16Z"></path><rect width="21" height="31.38" x="-10.5" y="-15.69" fill="none" rx="0" ry="0" transform="translate(485.69 206)"></rect><path fill="#fff" d="M509.625 221.823q-2.77 0-5.1-.72-2.33-.71-3.93-2.1l2.14-3.95q.38.3 1.32.86.95.57 2.36 1.03 1.4.47 3.08.47 2.82 0 4.67-1.6 1.84-1.6 1.84-4.41 0-1.55-.65-2.92-.65-1.36-2.18-2.23-1.53-.86-4.18-.86-1.26 0-2.63.15-1.36.15-2.49.4-1.14.25-1.73.59l.63-16.21h15.84v4.11h-11.26l-.42 7.31q.59-.17 1.45-.25.86-.09 2.08-.09 4.87 0 7.66 2.54 2.8 2.55 2.8 7 0 3.19-1.33 5.65-1.32 2.45-3.84 3.84-2.52 1.39-6.13 1.39"></path><rect width="20.33" height="31.5" x="-10.16" y="-15.75" fill="none" rx="0" ry="0" transform="translate(511.26 206.57)"></rect></svg></svg>